<svg height="511pt" viewBox="0 0 511.99994 511" width="511pt" xmlns="http://www.w3.org/2000/svg"><path d="m197.261719 353.898438 17.070312 10.445312h83.085938c17.945312 0 32.5 14.550781 32.5 32.5 0 17.945312-14.554688 32.496094-32.5 32.496094l9.441406.015625c13.46875 0 26.351563-5.511719 35.65625-15.253907l48.160156-50.433593-87.789062-87.792969c-25.839844-25.835938-67.730469-25.835938-93.566407 0l-59.78125 59.78125c16.820313 3.09375 33.007813 9.238281 47.722657 18.242188zm0 0" fill="#dca98b"/><path d="m10 388.34375 19.507812-17.984375c25.824219-23.800781 59.65625-37.015625 94.773438-37.015625 25.757812 0 51.011719 7.113281 72.980469 20.554688l17.070312 10.445312h83.085938c17.945312 0 32.5 14.550781 32.5 32.5s-14.554688 32.5-32.5 32.5h-110.417969l-2.046875.011719h121.90625c13.46875 0 26.351563-5.511719 35.65625-15.25l103.730469-108.628907c11.96875-12.53125 31.679687-13.410156 44.714844-1.996093 13.492187 11.816406 14.796874 32.351562 2.910156 45.78125l-95.882813 108.34375c-25.261719 28.546875-61.554687 44.894531-99.671875 44.894531h-288.316406zm0 0" fill="#f2d1a5"/><g fill="#cbe558"><path d="m215.832031 83.292969c0 30.65625 16.039063 57.546875 40.167969 72.792969 24.128906-15.246094 40.167969-42.136719 40.167969-72.792969 0-30.652344-16.039063-57.542969-40.167969-72.792969-24.128906 15.25-40.167969 42.140625-40.167969 72.792969zm0 0"/><path d="m281.195312 132.996094c-21.675781 21.675781-29.351562 52.03125-23.070312 79.875 27.84375 6.28125 58.199219-1.394532 79.875-23.070313s29.347656-52.03125 23.070312-79.875c-27.84375-6.28125-58.199218 1.394531-79.875 23.070313zm0 0"/><path d="m230.804688 132.996094c21.671874 21.675781 29.347656 52.03125 23.070312 79.875-27.84375 6.28125-58.199219-1.394532-79.875-23.070313s-29.351562-52.03125-23.070312-79.875c27.84375-6.28125 58.199218 1.394531 79.875 23.070313zm0 0"/></g><path d="m511.914062 325.132812c-.722656-11.332031-5.824218-21.691406-14.363281-29.171874-17.113281-14.988282-42.824219-13.84375-58.535156 2.609374l-48.503906 50.789063-80.554688-80.554687c-12.332031-12.328126-27.871093-19.519532-43.957031-21.613282v-22.84375c3.785156.445313 7.570312.675782 11.339844.675782 25.167968-.003907 49.460937-9.878907 67.730468-28.152344 23.429688-23.429688 33.058594-56.757813 25.753907-89.144532-.847657-3.765624-3.789063-6.707031-7.554688-7.554687-20.457031-4.613281-41.285156-2.464844-59.761719 5.640625 1.742188-7.277344 2.65625-14.820312 2.65625-22.519531 0-33.136719-16.757812-63.507813-44.824218-81.246094-3.261719-2.0625-7.421875-2.0625-10.683594 0-28.066406 17.738281-44.824219 48.109375-44.824219 81.246094 0 7.699219.917969 15.246093 2.65625 22.519531-18.476562-8.105469-39.304687-10.253906-59.757812-5.640625-3.769531.847656-6.707031 3.789063-7.558594 7.554687-7.304687 32.386719 2.324219 65.714844 25.753906 89.144532 18.273438 18.273437 42.5625 28.152344 67.734375 28.152344 3.765625 0 7.550782-.230469 11.339844-.675782v22.871094c-16.011719 2.125-31.476562 9.308594-43.753906 21.585938l-56.144532 56.152343c-7.199218-1.0625-14.488281-1.613281-21.820312-1.613281-37.734375 0-73.800781 14.085938-101.550781 39.664062l-19.507813 17.980469c-4.0625 3.746094-4.316406 10.070313-.574218 14.132813 3.742187 4.0625 10.070312 4.316406 14.128906.574218l19.511718-17.984374c24.042969-22.164063 55.292969-34.367188 87.992188-34.367188 23.921875 0 47.355469 6.597656 67.761719 19.082031l17.070312 10.445313c1.570313.960937 3.378907 1.472656 5.21875 1.472656h83.085938c12.40625 0 22.5 10.089844 22.5 22.5 0 12.40625-10.09375 22.5-22.5 22.5-.089844 0-.175781.007812-.261719.011719h-87.199219c-5.523437 0-10 4.476562-10 10 0 5.523437 4.476563 10 10 10h96.902344c16.121094 0 31.753906-6.6875 42.886719-18.347657l103.734375-108.625c8.292969-8.683593 21.859375-9.289062 30.890625-1.378906 4.507812 3.949219 7.203125 9.414063 7.582031 15.394532.378906 5.980468-1.597656 11.746093-5.570313 16.234374l-95.882812 108.34375c-23.347656 26.386719-56.949219 41.519532-92.183594 41.519532h-288.316406c-5.523438 0-10 4.476562-10 10 0 5.523437 4.476562 10 10 10h288.316406c40.957032 0 80.015625-17.589844 107.164063-48.265625l95.882812-108.34375c7.523438-8.5 11.269531-19.425781 10.550781-30.753907zm-223.648437-185.066406c17.015625-17.011718 40.625-24.832031 64.214844-21.550781 3.28125 23.589844-4.539063 47.199219-21.550781 64.214844-13.769532 13.765625-31.851563 21.507812-50.75 22.226562l34.890624-34.886719c3.902344-3.90625 3.902344-10.238281 0-14.144531-3.90625-3.90625-10.238281-3.90625-14.144531 0l-34.886719 34.886719c.628907-16.574219 6.667969-32.519531 17.429688-45.480469.277344-.320312.550781-.640625.820312-.964843 1.265626-1.472657 2.589844-2.910157 3.976563-4.300782zm-32.265625-117.417968c19 14.359374 30.167969 36.582031 30.167969 60.644531 0 19.46875-7.3125 37.734375-20.167969 51.601562v-45.894531c0-5.523438-4.476562-10-10-10s-10 4.476562-10 10v45.894531c-12.855469-13.867187-20.167969-32.132812-20.167969-51.601562 0-24.0625 11.164063-46.285157 30.167969-60.644531zm-96.480469 95.867187c23.589844-3.28125 47.199219 4.539063 64.214844 21.550781 1.386719 1.390625 2.710937 2.828125 3.972656 4.300782.269531.324218.546875.644531.820313.964843 10.765625 12.960938 16.804687 28.90625 17.433594 45.484375l-34.886719-34.890625c-3.90625-3.902343-10.238281-3.902343-14.144531 0-3.90625 3.90625-3.90625 10.238281 0 14.144531l34.886718 34.886719c-18.894531-.71875-36.980468-8.460937-50.746094-22.226562-17.011718-17.015625-24.835937-40.625-21.550781-64.214844zm179.972657 284.273437c.273437-1.941406.421874-3.925781.421874-5.945312 0-23.4375-19.0625-42.5-42.496093-42.5h-80.269531l-14.667969-8.976562c-10.511719-6.429688-21.71875-11.496094-33.359375-15.148438l47.269531-47.269531c21.898437-21.898438 57.527344-21.898438 79.421875 0l80.882812 80.882812zm0 0"/><path d="m177.03125 436.429688c1.859375-1.863282 2.929688-4.441407 2.929688-7.070313 0-2.640625-1.070313-5.210937-2.929688-7.070313-1.863281-1.871093-4.441406-2.929687-7.070312-2.929687-2.632813 0-5.210938 1.058594-7.070313 2.929687-1.859375 1.859376-2.929687 4.429688-2.929687 7.070313 0 2.628906 1.070312 5.207031 2.929687 7.070313 1.859375 1.859374 4.4375 2.929687 7.070313 2.929687 2.628906 0 5.207031-1.070313 7.070312-2.929687zm0 0"/><path d="m23.609375 226.992188h16.386719c5.519531 0 9.996094-4.476563 9.996094-10 0-5.523438-4.476563-10-9.996094-10h-16.386719c-5.523437 0-10 4.476562-10 10 0 5.523437 4.476563 10 10 10zm0 0"/><path d="m89.136719 226.992188h15.253906c5.523437 0 10-4.476563 10-10 0-5.523438-4.476563-10-10-10h-15.253906c-5.523438 0-10 4.476562-10 10 0 5.523437 4.476562 10 10 10zm0 0"/><path d="m64 266.5c5.523438 0 10-4.476562 10-10v-14.453125c0-5.523437-4.476562-10-10-10s-10 4.476563-10 10v14.453125c0 5.523438 4.476562 10 10 10zm0 0"/><path d="m64 199.125c5.523438 0 10-4.476562 10-10v-11.640625c0-5.523437-4.476562-10-10-10s-10 4.476563-10 10v11.640625c0 5.523438 4.476562 10 10 10zm0 0"/><path d="m407.609375 74.5h16.382813c5.523437 0 10-4.476562 10-10s-4.476563-10-10-10h-16.382813c-5.523437 0-10 4.476562-10 10s4.476563 10 10 10zm0 0"/><path d="m473.136719 74.5h15.25c5.523437 0 10-4.476562 10-10s-4.476563-10-10-10h-15.25c-5.523438 0-10 4.476562-10 10s4.476562 10 10 10zm0 0"/><path d="m448 114.007812c5.523438 0 10-4.476562 10-10v-14.453124c0-5.523438-4.476562-10-10-10s-10 4.476562-10 10v14.453124c0 5.523438 4.476562 10 10 10zm0 0"/><path d="m448 46.632812c5.523438 0 10-4.476562 10-10v-11.640624c0-5.523438-4.476562-10-10-10s-10 4.476562-10 10v11.640624c0 5.523438 4.476562 10 10 10zm0 0"/></svg>