<svg id="Layer_1_1_" enable-background="new 0 0 64 64" height="512" viewBox="0 0 64 64" width="512" xmlns="http://www.w3.org/2000/svg"><path d="m23.075 16.093s1.636-2.294 4.941-2.372l2.984 4.279-5 5z" fill="#bd481b"/><path d="m41.745 16c-2.791-3.464-7.681-2.884-7.681-2.884l-1.064 6.884 4 2z" fill="#bd481b"/><path d="m17.389 49.516c-4.194-10.186-3.639-21.71 1.515-31.446l.041-.077c.221-.417.518-.776.863-1.074-9.25.115-14.808 5.448-14.808 18.061 0 14.02 6.286 18.638 13.992 17.006-.655-.65-1.173-1.425-1.525-2.279z" fill="#d2501e"/><path d="m38 5h-6c-2.974 3.47-4.42 7.93-4.142 12.401.774-.853 1.784-1.401 3.142-1.401h2c.376 0 .718.052 1.045.128-.104-1.102-.089-2.089.025-3.013 0 0-.006.001-.006.001s.005-.001.006-.001c.312-2.545 1.415-4.593 3.205-7.099z" fill="#3f4a0d"/><path d="m44.193 16.911c.34.295.633.648.85 1.059 5.188 9.799 5.747 21.398 1.525 31.651l-.035.086c-.351.853-.87 1.628-1.525 2.279-.013.013-.026.026-.039.039 7.992.936 14.031-1.748 14.031-17.045 0-12.245-5.904-17.659-14.807-18.069z" fill="#d2501e"/><path d="m31 16c-1.358 0-2.368.548-3.142 1.401.004.057 0 .114.004.171-.004-.057 0-.114-.004-.171-2.093 2.306-2.4 6.911-2.762 9.457-.258 1.817-.43 3.646-.515 5.48-.169 3.665.012 7.346.54 10.977.341 2.347.681 6.286 2.297 8.67l.007-.004-.007.004c.814 1.201 1.948 2.015 3.582 2.015h2c3.67 0 4.755-4.12 5.343-6.95.755-3.633 1.066-7.359 1.129-11.065.055-3.24-.242-6.446-.59-9.662-.355-3.286-.915-9.289-4.837-10.195.001.011.001.02.002.031-.001-.011-.001-.02-.002-.031-.327-.076-.669-.128-1.045-.128z" fill="#d2501e"/><path d="m27.417 51.984c-1.616-2.384-1.956-6.323-2.297-8.67-.528-3.631-.709-7.312-.54-10.977.085-1.833.256-3.663.515-5.48.205-1.44.404-3.534.907-5.504l-.002-.054v-1.554c0-2.068-1.677-3.745-3.745-3.745-1.387 0-2.661.767-3.31 1.993l-.041.077c-5.154 9.736-5.71 21.26-1.515 31.446l.079.191c.351.853.87 1.628 1.525 2.279.013.013.026.026.039.039 1.846 1.805 4.722 2.047 6.965.769z" fill="#d2501e"/><path d="m45.043 17.97c-.642-1.212-1.9-1.97-3.272-1.97h-.026c-2.068 0-3.745 1.677-3.745 3.745v1.23l-.001.013c.522 1.856.724 3.866.883 5.334.348 3.216.645 6.421.59 9.662-.063 3.706-.374 7.432-1.129 11.065-.339 1.631-.846 3.686-1.915 5.139v.002l1.603.686c2.259 1.215 5.103.941 6.937-.852l.039-.039c.655-.65 1.173-1.425 1.525-2.279l.035-.086c4.223-10.252 3.664-21.851-1.524-31.65z" fill="#d2501e"/><g fill="#bd481b"><path d="m41.993 35.985c.055-3.24-.242-6.446-.59-9.662-.273-2.527-.674-6.653-2.625-8.84-.481.63-.778 1.408-.778 2.262v1.23l-.001.013c.522 1.856.724 3.866.883 5.334.348 3.216.645 6.421.59 9.662-.063 3.706-.374 7.432-1.129 11.065-.339 1.631-.846 3.686-1.915 5.139v.002l1.603.686c.071.038.146.061.218.096 1.565-1.404 2.209-3.97 2.615-5.923.755-3.633 1.066-7.358 1.129-11.064z"/><path d="m24.581 32.337c.085-1.833.256-3.663.515-5.48.205-1.44.404-3.534.907-5.504l-.003-.054v-1.554c0-.837-.284-1.602-.748-2.226-2.007 2.34-2.319 6.832-2.676 9.338-.258 1.817-.43 3.646-.515 5.48-.169 3.665.012 7.346.54 10.977.341 2.347.681 6.286 2.297 8.67.24.354.512.669.811.945.095-.048.195-.082.288-.135l1.421-.809c-1.616-2.384-1.956-6.323-2.297-8.67-.528-3.632-.709-7.313-.54-10.978z"/><path d="m49.191 49.621c4.222-10.253 3.663-21.852-1.525-31.651-.136-.257-.305-.489-.492-.702-.951-.187-1.944-.309-2.981-.357.34.295.633.648.85 1.059 5.188 9.799 5.747 21.398 1.525 31.651l-.035.086c-.351.853-.87 1.628-1.525 2.279-.013.013-.026.026-.039.039.832.097 1.641.153 2.426.162.064-.057.135-.101.197-.162l.039-.039c.655-.65 1.173-1.425 1.525-2.279z"/><path d="m18.945 17.993c.221-.417.518-.776.863-1.074-.998.013-1.944.098-2.854.235-.237.247-.443.528-.608.84l-.041.077c-5.154 9.736-5.71 21.26-1.515 31.446l.079.191c.351.853.87 1.628 1.525 2.279.013.013.026.026.039.039.093.091.198.16.296.242.739-.035 1.491-.117 2.263-.281-.655-.65-1.173-1.425-1.525-2.279l-.079-.191c-4.194-10.186-3.639-21.71 1.515-31.446z"/><path d="m44.969 50.024c-1.834 1.793-4.678 2.067-6.937.852l-1.603-.686v-.002c-.786 1.068-1.874 1.812-3.429 1.812h-2c-1.634 0-2.768-.814-3.583-2.016l-1.421.809c-2.243 1.278-5.119 1.036-6.965-.769-.013-.013-.026-.026-.039-.039-7.516 1.592-13.664-2.788-13.964-16.012-.008.337-.028.659-.028 1.007 0 14.02 6.286 18.638 13.992 17.006.013.013.026.026.039.039 1.846 1.805 4.722 2.047 6.965.769l1.421-.809c.815 1.201 1.949 2.015 3.583 2.015h2c1.555 0 2.643-.744 3.428-1.812v.002l1.603.686c2.259 1.215 5.103.941 6.937-.852 7.993.937 14.032-1.747 14.032-17.044 0-.203-.015-.389-.018-.588-.366 14.05-6.274 16.539-14.013 15.632z"/></g></svg>