<svg height="512pt" viewBox="0 -40 512.00117 512" width="512pt" xmlns="http://www.w3.org/2000/svg"><g fill="#cbe558"><path d="m94 26.003906c-13.75 13.75-18.617188 33.003906-14.636719 50.667969 17.664063 3.984375 36.917969-.886719 50.671875-14.636719 13.75-13.75 18.617188-33.003906 14.632813-50.667968-17.664063-3.984376-36.917969.886718-50.667969 14.636718zm0 0"/><path d="m62.035156 26.003906c13.75 13.75 18.617188 33.003906 14.632813 50.667969-17.660157 3.984375-36.917969-.886719-50.667969-14.636719s-18.617188-33.003906-14.632812-50.667968c17.660156-3.984376 36.917968.886718 50.667968 14.636718zm0 0"/><path d="m271.984375 26.003906c-13.75 13.75-18.621094 33.003906-14.636719 50.667969 17.664063 3.984375 36.917969-.886719 50.667969-14.636719s18.621094-33.003906 14.636719-50.667968c-17.660156-3.984376-36.917969.886718-50.667969 14.636718zm0 0"/><path d="m240.019531 26.003906c13.75 13.75 18.617188 33.003906 14.632813 50.667969-17.660156 3.984375-36.917969-.886719-50.667969-14.636719s-18.617187-33.003906-14.632813-50.667968c17.660157-3.984376 36.917969.886718 50.667969 14.636718zm0 0"/><path d="m449.96875 26.003906c-13.75 13.75-18.617188 33.003906-14.636719 50.667969 17.664063 3.984375 36.917969-.886719 50.667969-14.636719s18.621094-33.003906 14.636719-50.667968c-17.664063-3.984376-36.917969.886718-50.667969 14.636718zm0 0"/><path d="m418.003906 26.003906c13.75 13.75 18.617188 33.003906 14.632813 50.667969-17.660157 3.984375-36.917969-.886719-50.667969-14.636719s-18.617188-33.003906-14.632812-50.667968c17.660156-3.984376 36.917968.886718 50.667968 14.636718zm0 0"/><path d="m182.992188 197.992188c-13.75 13.75-18.621094 33.007812-14.636719 50.667968 17.664062 3.984375 36.917969-.882812 50.667969-14.632812s18.621093-33.007813 14.636718-50.671875c-17.664062-3.980469-36.917968.886719-50.667968 14.636719zm0 0"/><path d="m151.027344 197.992188c13.75 13.75 18.617187 33.007812 14.632812 50.667968-17.664062 3.984375-36.917968-.882812-50.667968-14.632812s-18.617188-33.007813-14.636719-50.671875c17.664062-3.980469 36.921875.886719 50.671875 14.636719zm0 0"/><path d="m360.976562 197.992188c-13.75 13.75-18.617187 33.007812-14.636718 50.667968 17.664062 3.984375 36.921875-.882812 50.671875-14.632812s18.617187-33.007813 14.632812-50.671875c-17.664062-3.980469-36.917969.886719-50.667969 14.636719zm0 0"/><path d="m329.011719 197.992188c13.75 13.75 18.617187 33.007812 14.632812 50.667968-17.660156 3.984375-36.917969-.882812-50.667969-14.632812s-18.617187-33.007813-14.632812-50.671875c17.660156-3.980469 36.917969.886719 50.667969 14.636719zm0 0"/><path d="m94 369.984375c-13.75 13.75-18.617188 33.003906-14.636719 50.667969 17.664063 3.984375 36.917969-.886719 50.671875-14.636719 13.75-13.75 18.617188-33.003906 14.632813-50.667969-17.664063-3.984375-36.917969.886719-50.667969 14.636719zm0 0"/><path d="m62.035156 369.984375c13.75 13.75 18.617188 33.003906 14.632813 50.667969-17.660157 3.984375-36.917969-.886719-50.667969-14.636719s-18.617188-33.003906-14.632812-50.667969c17.660156-3.984375 36.917968.886719 50.667968 14.636719zm0 0"/><path d="m271.984375 369.984375c-13.75 13.75-18.621094 33.003906-14.636719 50.667969 17.664063 3.984375 36.917969-.886719 50.667969-14.636719s18.621094-33.003906 14.636719-50.667969c-17.660156-3.984375-36.917969.886719-50.667969 14.636719zm0 0"/><path d="m240.019531 369.984375c13.75 13.75 18.617188 33.003906 14.632813 50.667969-17.660156 3.984375-36.917969-.886719-50.667969-14.636719s-18.617187-33.003906-14.632813-50.667969c17.660157-3.984375 36.917969.886719 50.667969 14.636719zm0 0"/><path d="m449.96875 369.984375c-13.75 13.75-18.617188 33.003906-14.636719 50.667969 17.664063 3.984375 36.917969-.886719 50.667969-14.636719s18.621094-33.003906 14.636719-50.667969c-17.664063-3.984375-36.917969.886719-50.667969 14.636719zm0 0"/><path d="m418.003906 369.984375c13.75 13.75 18.617188 33.003906 14.632813 50.667969-17.660157 3.984375-36.917969-.886719-50.667969-14.636719s-18.617188-33.003906-14.632812-50.667969c17.660156-3.984375 36.917968.886719 50.667968 14.636719zm0 0"/></g><path d="m10.019531 68c-5.519531 0-9.9960935 4.476562-9.9960935 9.996094 0 5.523437 4.4765625 10 9.9960935 10h491.960938c5.523437 0 10-4.476563 10-10 0-5.519532-4.476563-9.996094-10-9.996094h-7.835938c14.972657-15.691406 21.042969-37.558594 16.246094-58.832031-.847656-3.765625-3.789063-6.707031-7.554687-7.554688-21.777344-4.914062-44.183594 1.5625-59.9375 17.316407-3.414063 3.414062-6.390626 7.140624-8.914063 11.109374-2.519531-3.964843-5.496094-7.695312-8.914063-11.109374-15.753906-15.753907-38.164062-22.230469-59.9375-17.316407-3.765624.847657-6.707031 3.789063-7.554687 7.554688-4.796875 21.273437 1.273437 43.140625 16.246094 58.832031h-57.664063c14.96875-15.691406 21.042969-37.558594 16.246094-58.832031-.851562-3.765625-3.792969-6.707031-7.554688-7.554688-21.78125-4.914062-44.1875 1.5625-59.941406 17.316407-3.414062 3.414062-6.390625 7.140624-8.910156 11.109374-2.523438-3.964843-5.5-7.695312-8.914062-11.109374-15.753907-15.753907-38.164063-22.230469-59.9375-17.316407-3.765626.847657-6.707032 3.789063-7.554688 7.554688-4.796875 21.273437 1.273438 43.140625 16.242188 58.832031h-57.660157c14.96875-15.691406 21.042969-37.558594 16.242188-58.832031-.847657-3.765625-3.789063-6.707031-7.554688-7.554688-21.777343-4.914062-44.183593 1.5625-59.9375 17.316407-3.414062 3.414062-6.390625 7.140624-8.914062 11.109374-2.519531-3.964843-5.496094-7.695312-8.910157-11.109374-15.753906-15.753907-38.160156-22.230469-59.9375-17.316407-3.761718.847657-6.703124 3.789063-7.554687 7.554688-4.796875 21.273437 1.277344 43.144531 16.246094 58.832031zm447.019531-34.925781c9.296876-9.296875 21.949219-13.917969 34.828126-12.9375.976562 12.875-3.640626 25.53125-12.9375 34.828125-8.089844 8.09375-18.726563 12.636718-29.839844 13.035156h-3.015625c-.65625-.023438-1.316407-.046875-1.972657-.097656-.058593-.796875-.097656-1.59375-.113281-2.390625.007813-.53125.007813-1.0625.003907-1.589844.15625-11.472656 4.710937-22.511719 13.046874-30.847656zm-68 21.890625c-9.296874-9.296875-13.910156-21.953125-12.9375-34.828125 12.878907-.972657 25.535157 3.636719 34.832032 12.933593 8.332031 8.335938 12.890625 19.375 13.042968 30.847657-.003906.53125 0 1.0625.007813 1.59375-.015625.792969-.054687 1.589843-.117187 2.390625-.664063.050781-1.328126.074218-1.988282.09375h-2.945312c-11.128906-.386719-21.789063-4.925782-29.894532-13.03125zm-109.984374-21.890625c9.296874-9.296875 21.949218-13.917969 34.828124-12.9375.976563 12.875-3.640624 25.53125-12.933593 34.828125-8.089844 8.089844-18.726563 12.636718-29.832031 13.035156h-3.039063c-.652344-.023438-1.304687-.046875-1.960937-.097656-.058594-.796875-.097657-1.59375-.113282-2.390625.007813-.53125.011719-1.0625.007813-1.589844.148437-11.472656 4.707031-22.511719 13.042969-30.847656zm-68 21.890625c-9.296876-9.296875-13.910157-21.953125-12.9375-34.828125 12.882812-.972657 25.535156 3.636719 34.832031 12.933593 8.335937 8.335938 12.890625 19.375 13.046875 30.847657-.003906.53125-.003906 1.0625.003906 1.59375-.015625.792969-.054688 1.589843-.113281 2.390625-.667969.050781-1.332031.074218-1.996094.09375h-2.941406c-11.132813-.386719-21.789063-4.925782-29.894531-13.03125zm-109.984376-21.890625c9.296876-9.296875 21.949219-13.917969 34.828126-12.9375.976562 12.875-3.640626 25.53125-12.9375 34.828125-8.085938 8.089844-18.71875 12.636718-29.828126 13.035156h-3.039062c-.652344-.023438-1.304688-.046875-1.960938-.097656-.058593-.796875-.097656-1.59375-.117187-2.390625.011719-.53125.011719-1.0625.007813-1.589844.15625-11.472656 4.710937-22.511719 13.046874-30.847656zm-68 21.890625c-9.296874-9.296875-13.910156-21.953125-12.9375-34.828125 12.878907-.972657 25.53125 3.636719 34.832032 12.933593 8.332031 8.335938 12.890625 19.375 13.042968 30.847657-.003906.53125 0 1.0625.007813 1.59375-.015625.792969-.054687 1.589843-.113281 2.390625-.664063.050781-1.324219.074218-1.980469.09375h-2.976563c-11.125-.390625-21.773437-4.929688-29.875-13.03125zm0 0"/><path d="m40.019531 249.988281c0 5.523438 4.476563 10 10 10h451.960938c5.523437 0 10-4.476562 10-10 0-5.523437-4.476563-10-10-10h-96.824219c14.96875-15.6875 21.039062-37.558593 16.242188-58.828125-.847657-3.765625-3.789063-6.707031-7.554688-7.554687-21.777344-4.910157-44.183594 1.5625-59.9375 17.316406-3.414062 3.414063-6.390625 7.140625-8.914062 11.105469-2.519532-3.964844-5.496094-7.691406-8.910157-11.105469-15.757812-15.757813-38.164062-22.234375-59.941406-17.316406-3.761719.847656-6.703125 3.789062-7.554687 7.554687-4.792969 21.269532 1.277343 43.140625 16.246093 58.828125h-57.664062c14.972656-15.6875 21.042969-37.558593 16.246093-58.828125-.847656-3.765625-3.789062-6.707031-7.554687-7.554687-21.773437-4.910157-44.183594 1.5625-59.9375 17.316406-3.414063 3.414063-6.390625 7.140625-8.914063 11.105469-2.519531-3.964844-5.496093-7.691406-8.910156-11.105469-15.757812-15.757813-38.164062-22.234375-59.941406-17.316406-3.761719.847656-6.703125 3.789062-7.554688 7.554687-4.796874 21.269532 1.277344 43.140625 16.246094 58.828125h-56.828125c-5.523437 0-10 4.476563-10 10zm328.027344-44.925781c9.296875-9.296875 21.957031-13.910156 34.828125-12.9375.976562 12.878906-3.640625 25.535156-12.9375 34.832031-8.089844 8.089844-18.722656 12.632813-29.832031 13.03125h-3.03125c-.652344-.019531-1.308594-.046875-1.964844-.097656-.058594-.796875-.097656-1.589844-.117187-2.386719.011718-.535156.011718-1.070312.007812-1.605468.15625-11.46875 4.714844-22.503907 13.046875-30.835938zm-68 21.894531c-9.296875-9.296875-13.910156-21.953125-12.9375-34.832031 12.875-.972656 25.535156 3.640625 34.828125 12.9375 8.335938 8.332031 12.890625 19.367188 13.046875 30.835938-.003906.535156 0 1.070312.007813 1.609374-.019532.792969-.054688 1.589844-.117188 2.386719-.664062.050781-1.328125.074219-1.992188.09375h-2.9375c-11.132812-.390625-21.792968-4.925781-29.898437-13.03125zm-109.984375-21.894531c9.296875-9.296875 21.953125-13.910156 34.828125-12.9375.976563 12.875-3.640625 25.535156-12.9375 34.832031-8.089844 8.089844-18.722656 12.632813-29.832031 13.03125h-3.03125c-.652344-.019531-1.308594-.046875-1.964844-.097656-.058594-.796875-.097656-1.589844-.117188-2.386719.011719-.535156.011719-1.070312.007813-1.605468.15625-11.46875 4.714844-22.503907 13.046875-30.835938zm-68 21.894531c-9.296875-9.296875-13.910156-21.953125-12.9375-34.832031 12.871094-.972656 25.535156 3.640625 34.832031 12.9375 8.332031 8.332031 12.886719 19.363281 13.042969 30.835938-.003906.535156 0 1.070312.007812 1.605468-.015624.796875-.054687 1.589844-.117187 2.386719-.664063.050781-1.328125.078125-1.992187.097656h-2.9375c-11.132813-.390625-21.792969-4.925781-29.898438-13.03125zm0 0"/><path d="m2.949219 242.917969c-1.859375 1.859375-2.9296878 4.4375-2.9296878 7.070312 0 2.628907 1.0703128 5.207031 2.9296878 7.066407 1.859375 1.863281 4.4375 2.929687 7.066406 2.929687 2.640625 0 5.210937-1.066406 7.070313-2.929687 1.871093-1.859376 2.929687-4.4375 2.929687-7.066407 0-2.632812-1.058594-5.210937-2.929687-7.070312-1.859376-1.859375-4.429688-2.929688-7.070313-2.929688-2.628906 0-5.207031 1.070313-7.066406 2.929688zm0 0"/><path d="m510.390625 353.148438c-.847656-3.765626-3.789063-6.707032-7.554687-7.554688-21.773438-4.914062-44.183594 1.5625-59.9375 17.316406-3.414063 3.414063-6.390626 7.140625-8.914063 11.109375-2.519531-3.964843-5.496094-7.695312-8.910156-11.109375-15.757813-15.753906-38.164063-22.230468-59.941407-17.316406-3.761718.847656-6.703124 3.789062-7.554687 7.554688-4.796875 21.269531 1.277344 43.140624 16.246094 58.832031h-57.664063c14.972656-15.691407 21.042969-37.558594 16.246094-58.832031-.847656-3.765626-3.789062-6.707032-7.554688-7.554688-21.777343-4.914062-44.183593 1.5625-59.9375 17.316406-3.414062 3.414063-6.390624 7.140625-8.914062 11.109375-2.519531-3.964843-5.496094-7.695312-8.910156-11.109375-15.757813-15.753906-38.167969-22.230468-59.941406-17.316406-3.765626.847656-6.703126 3.789062-7.554688 7.554688-4.796875 21.269531 1.277344 43.140624 16.246094 58.832031h-57.664063c14.972657-15.691407 21.042969-37.558594 16.246094-58.832031-.847656-3.765626-3.789063-6.707032-7.554687-7.554688-21.777344-4.914062-44.183594 1.5625-59.9375 17.316406-3.414063 3.414063-6.390626 7.140625-8.914063 11.109375-2.519531-3.964843-5.496094-7.695312-8.914063-11.109375-15.753906-15.753906-38.160156-22.230468-59.9375-17.316406-3.765624.847656-6.707031 3.789062-7.554687 7.554688-4.796875 21.269531 1.277344 43.140624 16.246094 58.832031h-7.835938c-5.523437 0-9.9999998 4.476562-9.9999998 9.996093 0 5.523438 4.4765628 10 9.9999998 10h491.960938c5.519531 0 9.996093-4.476562 9.996093-10 0-5.519531-4.476562-9.996093-9.996093-9.996093h-7.835938c14.972657-15.691407 21.042969-37.558594 16.246094-58.832031zm-121.351563 45.796874c-9.296874-9.296874-13.910156-21.953124-12.9375-34.828124 12.875-.972657 25.53125 3.640624 34.828126 12.9375 8.328124 8.328124 12.886718 19.351562 13.046874 30.816406-.003906.542968 0 1.085937.007813 1.628906-.019531.792969-.054687 1.589844-.117187 2.382812-.664063.050782-1.328126.078126-1.992188.097657h-2.941406c-11.132813-.390625-21.789063-4.929688-29.894532-13.035157zm-109.984374-21.890624c9.296874-9.296876 21.953124-13.917969 34.828124-12.9375.976563 12.875-3.640624 25.53125-12.933593 34.828124-8.09375 8.089844-18.726563 12.636719-29.839844 13.035157h-3.023437c-.65625-.023438-1.3125-.046875-1.96875-.097657-.058594-.796874-.097657-1.589843-.117188-2.382812.011719-.542969.015625-1.089844.007812-1.632812.160157-11.460938 4.71875-22.484376 13.046876-30.8125zm-68 21.890624c-9.296876-9.296874-13.910157-21.953124-12.9375-34.828124 12.875-.972657 25.535156 3.640624 34.828124 12.9375 8.332032 8.328124 12.886719 19.351562 13.046876 30.816406-.003907.542968 0 1.085937.007812 1.628906-.019531.792969-.054688 1.589844-.117188 2.382812-.664062.050782-1.328124.078126-1.992187.097657h-2.941406c-11.136719-.390625-21.789063-4.929688-29.894531-13.035157zm-109.984376-21.890624c9.296876-9.296876 21.957032-13.917969 34.828126-12.9375.976562 12.875-3.640626 25.53125-12.9375 34.828124-8.089844 8.089844-18.722657 12.636719-29.835938 13.035157h-3.023438c-.65625-.023438-1.3125-.046875-1.96875-.097657-.0625-.796874-.097656-1.589843-.117187-2.382812.007813-.542969.011719-1.089844.007813-1.632812.164062-11.460938 4.71875-22.484376 13.046874-30.8125zm-68 21.890624c-9.296874-9.296874-13.910156-21.953124-12.9375-34.828124 12.871094-.972657 25.53125 3.640624 34.828126 12.9375 8.328124 8.328124 12.886718 19.351562 13.046874 30.816406-.003906.542968 0 1.085937.007813 1.628906-.019531.792969-.054687 1.589844-.117187 2.382812-.660157.050782-1.316407.078126-1.976563.097657h-2.988281c-11.121094-.394531-21.765625-4.9375-29.863282-13.035157zm413.003907 13.035157c-.65625-.023438-1.316407-.046875-1.972657-.097657-.058593-.796874-.097656-1.589843-.117187-2.382812.011719-.542969.011719-1.089844.007813-1.632812.164062-11.460938 4.71875-22.488282 13.046874-30.816407 9.296876-9.296875 21.957032-13.910156 34.828126-12.9375.976562 12.875-3.636719 25.535157-12.9375 34.832031-8.089844 8.089844-18.722657 12.636719-29.839844 13.03125h-3.015625zm0 0"/></svg>