<svg xmlns="http://www.w3.org/2000/svg" width="158.123" height="158.123" viewBox="0 0 158.123 158.123">
  <path id="_2413357" data-name="2413357" d="M126.386,58.12A95.392,95.392,0,0,1,98.36,125.072a95.438,95.438,0,0,1-67.682,28.035,6.678,6.678,0,1,1,0-13.356,81.822,81.822,0,0,0,58.237-24.124A81.8,81.8,0,0,0,113.03,58.144l6.687-8.916Zm24.049,13.516a6.678,6.678,0,0,0,1.336-9.349L125.059,26.671a6.678,6.678,0,0,0-10.685,0L87.663,62.287A6.678,6.678,0,0,0,98.347,70.3l21.369-28.492L141.086,70.3A6.678,6.678,0,0,0,150.435,71.636Z" transform="matrix(0.259, -0.966, 0.966, 0.259, -29.394, 141.678)" fill="#fff"/>
</svg>
