<svg id="Layer_1_1_" enable-background="new 0 0 64 64" height="512" viewBox="0 0 64 64" width="512" xmlns="http://www.w3.org/2000/svg"><g fill="#f2c720"><path d="m16 16c6 0 0-10 0-10s-6 10 0 10z"/><path d="m16 24c0-5.523-4.477-10-10-10 0 5.523 4.477 10 10 10z"/><path d="m26 14c-5.523 0-10 4.477-10 10 5.523 0 10-4.477 10-10z"/><path d="m6 22c0 5.523 4.477 10 10 10 0-5.523-4.477-10-10-10z"/><path d="m16 32c5.523 0 10-4.477 10-10-5.523 0-10 4.477-10 10z"/><path d="m6 30c0 5.523 4.477 10 10 10 0-5.523-4.477-10-10-10z"/><path d="m16 40c5.523 0 10-4.477 10-10-5.523 0-10 4.477-10 10z"/><path d="m6 38c0 5.523 4.477 10 10 10 0-5.523-4.477-10-10-10z"/><path d="m26 38c-5.523 0-10 4.477-10 10 5.523 0 10-4.477 10-10z"/><path d="m48 16c6 0 0-10 0-10s-6 10 0 10z"/><path d="m38 14c0 5.523 4.477 10 10 10 0-5.523-4.477-10-10-10z"/><path d="m48 24c5.523 0 10-4.477 10-10-5.523 0-10 4.477-10 10z"/><path d="m38 22c0 5.523 4.477 10 10 10 0-5.523-4.477-10-10-10z"/><path d="m48 32c5.523 0 10-4.477 10-10-5.523 0-10 4.477-10 10z"/><path d="m38 30c0 5.523 4.477 10 10 10 0-5.523-4.477-10-10-10z"/><path d="m48 40c5.523 0 10-4.477 10-10-5.523 0-10 4.477-10 10z"/><path d="m38 38c0 5.523 4.477 10 10 10 0-5.523-4.477-10-10-10z"/><path d="m48 48c5.523 0 10-4.477 10-10-5.523 0-10 4.477-10 10z"/><path d="m15 48h2v14h-2z"/><path d="m16 6c-.552 0-1-.448-1-1v-2c0-.552.448-1 1-1 .552 0 1 .448 1 1v2c0 .552-.448 1-1 1z"/><path d="m26 14c-.39-.39-.39-1.024 0-1.414l1.586-1.586c.39-.39 1.024-.39 1.414 0 .39.39.39 1.024 0 1.414l-1.586 1.586c-.39.39-1.024.39-1.414 0z"/><path d="m4.586 14-1.586-1.586c-.39-.39-.39-1.024 0-1.414.39-.39 1.024-.39 1.414 0l1.586 1.586c.39.39.39 1.024 0 1.414-.39.39-1.024.39-1.414 0z"/><path d="m26 22c-.39-.39-.39-1.024 0-1.414l1.586-1.586c.39-.39 1.024-.39 1.414 0 .39.39.39 1.024 0 1.414l-1.586 1.586c-.39.39-1.024.39-1.414 0z"/><path d="m4.586 22-1.586-1.586c-.39-.39-.39-1.024 0-1.414.39-.39 1.024-.39 1.414 0l1.586 1.586c.39.39.39 1.024 0 1.414-.39.39-1.024.39-1.414 0z"/><path d="m26 30c-.39-.39-.39-1.024 0-1.414l1.586-1.586c.39-.39 1.024-.39 1.414 0 .39.39.39 1.024 0 1.414l-1.586 1.586c-.39.39-1.024.39-1.414 0z"/><path d="m4.586 30-1.586-1.586c-.39-.39-.39-1.024 0-1.414.39-.39 1.024-.39 1.414 0l1.586 1.586c.39.39.39 1.024 0 1.414-.39.39-1.024.39-1.414 0z"/><path d="m26 38c-.39-.39-.39-1.024 0-1.414l1.586-1.586c.39-.39 1.024-.39 1.414 0 .39.39.39 1.024 0 1.414l-1.586 1.586c-.39.39-1.024.39-1.414 0z"/><path d="m4.586 38-1.586-1.586c-.39-.39-.39-1.024 0-1.414.39-.39 1.024-.39 1.414 0l1.586 1.586c.39.39.39 1.024 0 1.414-.39.39-1.024.39-1.414 0z"/><path d="m47 48h2v14h-2z"/><path d="m48 6c-.552 0-1-.448-1-1v-2c0-.552.448-1 1-1 .552 0 1 .448 1 1v2c0 .552-.448 1-1 1z"/><path d="m58 14c-.39-.39-.39-1.024 0-1.414l1.586-1.586c.39-.39 1.024-.39 1.414 0 .39.39.39 1.024 0 1.414l-1.586 1.586c-.39.39-1.024.39-1.414 0z"/><path d="m36.586 14-1.586-1.586c-.39-.39-.39-1.024 0-1.414.39-.39 1.024-.39 1.414 0l1.586 1.586c.39.39.39 1.024 0 1.414-.39.39-1.024.39-1.414 0z"/><path d="m58 22c-.39-.39-.39-1.024 0-1.414l1.586-1.586c.39-.39 1.024-.39 1.414 0 .39.39.39 1.024 0 1.414l-1.586 1.586c-.39.39-1.024.39-1.414 0z"/><path d="m36.586 22-1.586-1.586c-.39-.39-.39-1.024 0-1.414.39-.39 1.024-.39 1.414 0l1.586 1.586c.39.39.39 1.024 0 1.414-.39.39-1.024.39-1.414 0z"/><path d="m58 30c-.39-.39-.39-1.024 0-1.414l1.586-1.586c.39-.39 1.024-.39 1.414 0 .39.39.39 1.024 0 1.414l-1.586 1.586c-.39.39-1.024.39-1.414 0z"/><path d="m36.586 30-1.586-1.586c-.39-.39-.39-1.024 0-1.414.39-.39 1.024-.39 1.414 0l1.586 1.586c.39.39.39 1.024 0 1.414-.39.39-1.024.39-1.414 0z"/><path d="m58 38c-.39-.39-.39-1.024 0-1.414l1.586-1.586c.39-.39 1.024-.39 1.414 0 .39.39.39 1.024 0 1.414l-1.586 1.586c-.39.39-1.024.39-1.414 0z"/><path d="m36.586 38-1.586-1.586c-.39-.39-.39-1.024 0-1.414.39-.39 1.024-.39 1.414 0l1.586 1.586c.39.39.39 1.024 0 1.414-.39.39-1.024.39-1.414 0z"/></g></svg>