<svg xmlns="http://www.w3.org/2000/svg" width="44.045" height="95.947" viewBox="0 0 44.045 95.947">
  <g id="_3239299" data-name="3239299" transform="translate(-18.5 -2.5)">
    <path id="Path_113" data-name="Path 113" d="M51.913,81.706c7.2-4.659,11.99-13.229,9.4-21.867a31.252,31.252,0,0,0-4.3-8.307A82.559,82.559,0,0,1,51.58,43c-3.4-6.7-3.41-15.905-2.2-23.185l.087-.52a31.317,31.317,0,0,0,.112-9.563,7.839,7.839,0,0,0-15.433-.5l-.341,1.632L37.1,24.393a19.6,19.6,0,0,1-3.291,9.874c-3.37,5.054-6.448,10.293-9.6,15.485C21.529,54.181,19,58.543,19,63.888a21.356,21.356,0,0,0,8.228,16.864l4.937,2.89a21.321,21.321,0,0,0,8.228,1.639,20.044,20.044,0,0,0,6.583-1.15Z" transform="translate(0)" fill="#fff" stroke="#e1cbac" stroke-width="1"/>
    <g id="Group_35" data-name="Group 35" transform="translate(22.291 10.864)">
      <path id="Path_114" data-name="Path 114" d="M36.165,7.779,32.874,9.425,31.228,7.779l-1.646,8.228L23,22.59a6.887,6.887,0,0,0,7.734,1.384c1.31-.6,2.669-1.259,3.739-1.868a8.783,8.783,0,0,0,1.693-1.162,23.673,23.673,0,0,0,3.291-4.937Z" transform="translate(-19.709 -7.779)" fill="#f29b20"/>
      <path id="Path_115" data-name="Path 115" d="M30.874,48.646V61.811l6.583,6.583L36.3,68.006a6.446,6.446,0,0,0-6.6,1.557l-.474.476-.474-.474a6.445,6.445,0,0,0-6.6-1.557L21,68.393l4.937-6.583V47" transform="translate(-21 17.543)" fill="#f29b20"/>
      <path id="Path_116" data-name="Path 116" d="M38.583,48.646V61.811L32,68.393l1.159-.387a6.446,6.446,0,0,1,6.6,1.557l.474.476.474-.474a6.445,6.445,0,0,1,6.6-1.557l1.159.385-4.937-6.583V47" transform="translate(-13.898 17.543)" fill="#f29b20"/>
    </g>
    <path id="Path_117" data-name="Path 117" d="M32.1,46.746a13.7,13.7,0,0,1-9.668-3.986l-.14-.14,2.327-2.327.14.14a10.4,10.4,0,0,0,9.818,2.719l.8,3.191a13.343,13.343,0,0,1-3.273.4Z" transform="translate(2.126 24.077)" fill="#fff0db"/>
    <path id="Path_118" data-name="Path 118" d="M39.24,44.2a13.578,13.578,0,0,1-4.578-.792l1.112-3.1a10.4,10.4,0,0,0,10.038-1.73L47.9,41.126A13.693,13.693,0,0,1,39.24,44.2Z" transform="translate(10.112 22.972)" fill="#fff0db"/>
    <ellipse id="Ellipse_5" data-name="Ellipse 5" cx="0.823" cy="1.646" rx="0.823" ry="1.646" transform="translate(45.33 9.583)"/>
    <path id="Path_119" data-name="Path 119" d="M36.339,38.284a13.705,13.705,0,0,1-9-3.357l2.166-2.478A10.393,10.393,0,0,0,39.485,34.5l1.012,3.13a13.5,13.5,0,0,1-4.159.653Z" transform="translate(5.386 19.013)" fill="#fff0db"/>
  </g>
</svg>
